<svg id="レイヤー_1" data-name="レイヤー 1" xmlns="http://www.w3.org/2000/svg" viewBox="0 0 95.9 14.78"><defs><style>.cls-1{fill:#fff;}</style></defs><path class="cls-1" d="M91.49,151.3c-.51,3.25-2.25,5.18-5.82,5.18-2.92,0-4.28-1.49-4.28-4a10,10,0,0,1,.1-1.29L83,142c0-.24.17-.28.36-.28s.27,0,.27.21,0,.17,0,.19l-1.45,9.13a8.35,8.35,0,0,0-.1,1.29c0,2,1.07,3.38,3.73,3.38,3.17,0,4.64-1.75,5.11-4.67L92.33,142c0-.24.16-.28.35-.28s.28,0,.28.21a1.52,1.52,0,0,1,0,.19Z" transform="translate(-81.39 -141.7)"/><path class="cls-1" d="M101.15,146.72c0,.17-.07.4-.34.4h-.42c-3,0-3.51,1.6-3.9,4.14l-.78,5c0,.21-.15.25-.34.25s-.25,0-.25-.19a1.55,1.55,0,0,1,0-.18l1.49-9.43c0-.21.15-.25.34-.25s.25,0,.25.19a1.55,1.55,0,0,1,0,.18l-.13.78c0,.13,0,.15.09.15s.1-.09.19-.17a4.13,4.13,0,0,1,3.31-1.13C101,146.43,101.15,146.47,101.15,146.72Z" transform="translate(-81.39 -141.7)"/><path class="cls-1" d="M104.51,142c0-.21.14-.25.33-.25s.25,0,.25.19,0,.17,0,.19l-.86,5.5c0,.06,0,.13.09.13s.12-.09.14-.11a4.22,4.22,0,0,1,3.17-1.17c2.4,0,3.24,1.26,3.24,3.08a14.52,14.52,0,0,1-.19,2c-.44,2.79-1.22,5-4.52,5a3.21,3.21,0,0,1-2.85-1.42c0-.07-.11-.17-.15-.17s-.08,0-.1.15l-.19,1.19c0,.21-.15.25-.34.25s-.25,0-.25-.19,0-.16,0-.18Zm5.52,9.52a14.56,14.56,0,0,0,.19-1.94c0-1.53-.61-2.52-2.75-2.52-2.9,0-3.47,1.89-3.87,4.46a13.33,13.33,0,0,0-.18,1.91,2.39,2.39,0,0,0,2.64,2.52C109.06,155.9,109.63,154.05,110,151.47Z" transform="translate(-81.39 -141.7)"/><path class="cls-1" d="M120.61,155.2s-.12.09-.14.11a4.22,4.22,0,0,1-3.17,1.17c-2.4,0-3.24-1.26-3.24-3.08a14.52,14.52,0,0,1,.19-2c.44-2.79,1.22-5,4.52-5a3.23,3.23,0,0,1,2.85,1.42c0,.07.11.17.15.17s.08,0,.1-.14l.19-1.2c0-.21.15-.25.34-.25s.25,0,.25.19,0,.16,0,.18l-1.26,8.09c0,.25-.08.57-.08.65,0,.25.12.34.46.34a.24.24,0,0,1,.27.25c0,.19-.13.35-.48.35-.61,0-.86-.31-.86-.81,0-.07,0-.26,0-.34S120.7,155.2,120.61,155.2Zm-5.73-3.76a14.56,14.56,0,0,0-.19,1.94c0,1.53.61,2.52,2.75,2.52,2.9,0,3.47-1.89,3.87-4.46a13.41,13.41,0,0,0,.19-1.91,2.4,2.4,0,0,0-2.65-2.52C115.85,147,115.28,148.86,114.88,151.44Z" transform="translate(-81.39 -141.7)"/><path class="cls-1" d="M133,156.23c0,.21-.14.25-.33.25s-.25,0-.25-.19,0-.16,0-.18l.84-5.4a9.94,9.94,0,0,0,.1-1.24c0-1.74-.84-2.46-2.58-2.46-3.07,0-3.67,2-4,4l-.82,5.23c0,.21-.15.25-.33.25s-.26,0-.26-.19,0-.16,0-.18l1.47-9.43c0-.21.15-.25.34-.25s.25,0,.25.19,0,.16,0,.18l-.13.87c0,.14.05.14.09.14s.17-.14.25-.23a4.32,4.32,0,0,1,3.21-1.15c1.89,0,3.09.82,3.09,3a8.05,8.05,0,0,1-.11,1.26Z" transform="translate(-81.39 -141.7)"/><path class="cls-1" d="M148.4,146.72c0,.17-.07.4-.34.4h-.42c-3,0-3.51,1.6-3.91,4.14l-.77,5c0,.21-.15.25-.34.25s-.25,0-.25-.19a1.55,1.55,0,0,1,0-.18l1.49-9.43c0-.21.15-.25.34-.25s.25,0,.25.19a1.55,1.55,0,0,1,0,.18l-.13.78c0,.13,0,.15.09.15s.1-.09.19-.17a4.12,4.12,0,0,1,3.31-1.13C148.23,146.43,148.4,146.47,148.4,146.72Z" transform="translate(-81.39 -141.7)"/><path class="cls-1" d="M149.76,153.38a10.45,10.45,0,0,1,.19-1.91c.46-2.84,1.13-5,4.68-5,2.35,0,3.28,1.17,3.28,3.08a8.56,8.56,0,0,1-.13,1.45c-.1.65-.25.8-.82.8h-6.27c-.15,0-.15.08-.17.15a11.44,11.44,0,0,0-.13,1.45c0,1.63.61,2.54,2.86,2.54a5.6,5.6,0,0,0,3-.8.32.32,0,0,1,.17-.06.34.34,0,0,1,.29.33.32.32,0,0,1-.21.27,7.1,7.1,0,0,1-3.42.84C150.6,156.48,149.76,155.2,149.76,153.38Zm7.54-3.8c0-1.52-.59-2.57-2.75-2.57-2.79,0-3.51,1.73-3.89,4,0,0,0,.07,0,.09s0,.1.13.1H157a.17.17,0,0,0,.19-.14A8.88,8.88,0,0,0,157.3,149.58Z" transform="translate(-81.39 -141.7)"/><path class="cls-1" d="M168.28,156.23c0,.21-.14.25-.33.25s-.26,0-.26-.19a1.64,1.64,0,0,1,0-.18l.84-5.4a9.94,9.94,0,0,0,.1-1.24c0-1.74-.84-2.46-2.58-2.46-3.07,0-3.68,2-4,4l-.82,5.23c0,.21-.15.25-.34.25s-.25,0-.25-.19,0-.16,0-.18l1.47-9.43c0-.21.15-.25.34-.25s.25,0,.25.19,0,.16,0,.18l-.13.87c0,.14,0,.14.09.14s.17-.14.25-.23a4.31,4.31,0,0,1,3.21-1.15c1.89,0,3.09.82,3.09,3a8.05,8.05,0,0,1-.11,1.26Z" transform="translate(-81.39 -141.7)"/><path class="cls-1" d="M175.09,156.48a1.62,1.62,0,0,1-1.85-1.84,5.81,5.81,0,0,1,.08-.91l1-6.48c0-.15,0-.19-.17-.19h-1.61a.21.21,0,0,1-.23-.23.3.3,0,0,1,.33-.32h1.6c.12,0,.19,0,.21-.19l.48-3c0-.21.15-.25.34-.25s.25,0,.25.19,0,.16,0,.18l-.46,2.9c0,.15,0,.19.16.19h1.83a.21.21,0,0,1,.23.23.3.3,0,0,1-.33.32h-1.81c-.13,0-.19,0-.21.19l-1,6.48a7.12,7.12,0,0,0-.06.89c0,1,.48,1.28,1.57,1.28.17,0,.23.12.23.27s-.1.31-.35.31Z" transform="translate(-81.39 -141.7)"/></svg>