<svg id="レイヤー_1" data-name="レイヤー 1" xmlns="http://www.w3.org/2000/svg" viewBox="0 0 39.77 36.86"><defs><style>.cls-1{fill:none;}.cls-2{fill:#3e3a39;}</style></defs><path d="M70.71,114.83a2,2,0,0,1-2.21,2c-1.12,0-1.64-.57-1.64-1.51a4.4,4.4,0,0,1,0-.49l.56-3.53a.12.12,0,0,1,.14-.1c.05,0,.1,0,.1.08v.07l-.56,3.48a3.47,3.47,0,0,0,0,.49c0,.78.41,1.28,1.43,1.28a1.81,1.81,0,0,0,1.94-1.77l.56-3.53c0-.08.06-.1.14-.1s.1,0,.1.08,0,.06,0,.07Z" transform="translate(-57.08 -94.85)"/><path d="M74.39,113.09c0,.06,0,.15-.13.15H74.1c-1.14,0-1.33.61-1.48,1.58l-.3,1.89a.11.11,0,0,1-.13.1s-.09,0-.09-.07v-.08l.57-3.59c0-.08.06-.09.13-.09s.1,0,.1.07a.56.56,0,0,1,0,.07l0,.3s0,0,0,0,0,0,.07-.06a1.61,1.61,0,0,1,1.27-.43C74.33,113,74.39,113,74.39,113.09Z" transform="translate(-57.08 -94.85)"/><path d="M75.67,111.28a.11.11,0,0,1,.13-.1s.1,0,.1.07a.35.35,0,0,1,0,.07l-.33,2.1s0,0,0,0,0,0,.06,0a1.58,1.58,0,0,1,1.2-.45c.92,0,1.24.48,1.24,1.17a5.33,5.33,0,0,1-.08.75c-.16,1.06-.46,1.91-1.71,1.91a1.22,1.22,0,0,1-1.09-.55s0-.06-.06-.06,0,0,0,.06l-.07.45c0,.08-.06.1-.13.1s-.09,0-.09-.07v-.08Zm2.1,3.62a5.36,5.36,0,0,0,.08-.74c0-.58-.24-1-1-1-1.1,0-1.32.72-1.47,1.7a4.73,4.73,0,0,0-.07.72.91.91,0,0,0,1,1C77.41,116.58,77.62,115.88,77.77,114.9Z" transform="translate(-57.08 -94.85)"/><path d="M81.81,116.32s0,0-.06,0a1.59,1.59,0,0,1-1.21.45c-.91,0-1.23-.48-1.23-1.18a5.1,5.1,0,0,1,.07-.74c.17-1.06.47-1.91,1.72-1.91a1.23,1.23,0,0,1,1.09.54s0,.07.06.07,0,0,0-.06l.07-.46c0-.08,0-.09.13-.09s.09,0,.09.07,0,.06,0,.07l-.47,3.08a2.35,2.35,0,0,0,0,.25c0,.09,0,.13.18.13a.09.09,0,0,1,.1.09c0,.07,0,.14-.18.14s-.33-.12-.33-.31c0,0,0-.1,0-.13S81.84,116.32,81.81,116.32Zm-2.19-1.43a5.11,5.11,0,0,0-.07.73c0,.59.23,1,1,1,1.1,0,1.32-.72,1.47-1.69a4.85,4.85,0,0,0,.07-.73.91.91,0,0,0-1-1C80,113.2,79.78,113.91,79.62,114.89Z" transform="translate(-57.08 -94.85)"/><path d="M86.53,116.71c0,.08,0,.1-.12.1s-.1,0-.1-.07,0-.07,0-.08l.32-2a4.7,4.7,0,0,0,0-.47c0-.67-.32-.94-1-.94-1.17,0-1.4.75-1.52,1.52l-.32,2c0,.08,0,.1-.12.1s-.1,0-.1-.07,0-.07,0-.08l.56-3.59c0-.08.05-.09.13-.09s.09,0,.09.07,0,.06,0,.07l0,.33c0,.06,0,.06,0,.06a.73.73,0,0,0,.09-.09,1.66,1.66,0,0,1,1.23-.44,1,1,0,0,1,1.17,1.15,2.74,2.74,0,0,1,0,.48Z" transform="translate(-57.08 -94.85)"/><path d="M68.94,121.09c0,.06,0,.15-.12.15h-.16c-1.15,0-1.34.61-1.49,1.58l-.3,1.89c0,.08-.05.1-.13.1s-.09,0-.09-.07a.54.54,0,0,1,0-.08l.56-3.59c0-.08.06-.09.13-.09s.1,0,.1.07a.56.56,0,0,1,0,.07l0,.3s0,0,0,0,0,0,.08-.06a1.57,1.57,0,0,1,1.26-.43C68.88,121,68.94,121,68.94,121.09Z" transform="translate(-57.08 -94.85)"/><path d="M69.46,123.62a4,4,0,0,1,.08-.72c.17-1.08.43-1.92,1.78-1.92.89,0,1.25.45,1.25,1.17a3.87,3.87,0,0,1,0,.56c0,.24-.1.3-.31.3H69.82c-.06,0-.06,0-.07.06,0,.2,0,.38,0,.55,0,.62.24,1,1.09,1a2.14,2.14,0,0,0,1.14-.3.08.08,0,0,1,.06,0,.12.12,0,0,1,0,.23,2.75,2.75,0,0,1-1.3.32C69.78,124.81,69.46,124.32,69.46,123.62Zm2.87-1.44c0-.58-.22-1-1-1-1.07,0-1.34.66-1.48,1.52a.1.1,0,0,1,0,0s0,0,0,0h2.36s.07,0,.08-.05A3.78,3.78,0,0,0,72.33,122.18Z" transform="translate(-57.08 -94.85)"/><path d="M76.52,124.71a.11.11,0,0,1-.13.1s-.1,0-.1-.07,0-.07,0-.08l.32-2a2.88,2.88,0,0,0,0-.47c0-.67-.32-.94-1-.94-1.17,0-1.4.75-1.52,1.52l-.31,2a.11.11,0,0,1-.13.1s-.1,0-.1-.07,0-.07,0-.08l.56-3.59c0-.08.06-.09.13-.09s.1,0,.1.07,0,.06,0,.07l0,.33c0,.06,0,.06,0,.06s.07-.06.1-.09a1.63,1.63,0,0,1,1.22-.44c.72,0,1.18.31,1.18,1.15a4.23,4.23,0,0,1,0,.48Z" transform="translate(-57.08 -94.85)"/><path d="M79.11,124.81a.62.62,0,0,1-.7-.71,1.72,1.72,0,0,1,0-.34l.39-2.47c0-.06,0-.07-.06-.07h-.62a.08.08,0,0,1-.09-.09.12.12,0,0,1,.13-.12h.61s.07,0,.08-.07l.18-1.15a.11.11,0,0,1,.13-.1s.1,0,.1.07a.35.35,0,0,1,0,.07l-.18,1.11s0,.07.07.07h.69a.08.08,0,0,1,.09.09.12.12,0,0,1-.13.12h-.68s-.08,0-.08.07l-.4,2.47c0,.12,0,.23,0,.34,0,.39.18.48.6.48.06,0,.09,0,.09.11s0,.12-.14.12Z" transform="translate(-57.08 -94.85)"/><g id="フレーム-2"><polygon id="塗り" class="cls-1" points="36.93 11.36 19.89 0.51 2.84 11.36 2.84 36.54 36.93 36.54 36.93 11.36"/><path class="cls-2" d="M94,131.71H59.92a.32.32,0,0,1-.32-.32v-23.5a.32.32,0,0,1,.64,0v23.18H93.69V107.89a.32.32,0,0,1,.64,0v23.5A.32.32,0,0,1,94,131.71Z" transform="translate(-57.08 -94.85)"/><path class="cls-2" d="M96.53,108.14a.34.34,0,0,1-.17,0L77,95.75,57.57,108.09a.32.32,0,0,1-.44-.1.31.31,0,0,1,.1-.44L76.79,95.1a.32.32,0,0,1,.35,0L96.7,107.55a.31.31,0,0,1,.1.44A.31.31,0,0,1,96.53,108.14Z" transform="translate(-57.08 -94.85)"/><path class="cls-2" d="M63.08,102.82a.32.32,0,0,1-.32-.32V95.17a.33.33,0,0,1,.32-.32h4.57a.32.32,0,0,1,.32.32v4.42a.32.32,0,0,1-.32.32.32.32,0,0,1-.32-.32v-4.1H63.4v7A.32.32,0,0,1,63.08,102.82Z" transform="translate(-57.08 -94.85)"/></g></svg>